# xmcd
#
# Track frame offsets: 
#        150
#        15787
#        29700
#        39435
#        56933
#        67245
#        82076
#        97021
#        109684
#        124248
#        134601
#        146796
#        158676
#        165052
#        175681
#        190987
#        201615
#        217608
#        228258
#        242247
#        254940
#        264424
#        280402
#        292493
#        302571
#        310835
#        321170
#        330094
#        339525
#
# Disc length: 4737 seconds
#
# Revision: 0
# Processed by: cddbd v1.5.2PL0 Copyright (c) Steve Scherf et al.
# Submitted via: ExactAudioCopyFreeDBPlugin 1.0
#
DISCID=ba127f1d
DTITLE=Various Artist - Dance! Dance! Dance! New Jack Swing Mix
DYEAR=2013
DGENRE=Funk
TTITLE0=Heavy D. and The Boyz - Now That We Found Love (Club Mix)
TTITLE1=Boys II Men - Motownphilly
TTITLE2=Tony! Toni! Toné! - Feels Good
TTITLE3=C+C Music Factory - Gonna Make You Sweat (Everybody Dance Now)
TTITLE4=Jodeci - It's Alright
TTITLE5=Basic Black - Nothing But A Party
TTITLE6=R. Kelly and Public Announcement - She's Got That Vibe
TTITLE7=Riff - White Men Can't Jump
TTITLE8=Guy - Spend The Night (Extended Version)
TTITLE9=Heavy D. and The Boyz - We Got Our Own Thang (Club Version)
TTITLE10=Johnny Gill - Rub You The Right Way (Extended Version)
TTITLE11=Bell Biv Devoe - Poison (Extended Club Version)
TTITLE12=Guy - Gotta Be A Leader
TTITLE13=Wrecks-N-Effect - New Jack Swing (12'' Version)
TTITLE14=Guy - Groove Me (Extended Version)
TTITLE15=Father MC - Treat Them Like They Want To Be Treated (Short Ve
TTITLE15=rsion)
TTITLE16=Al B. Sure! - If I'm Not Your Lover (Remastered 12'' Remix Ve
TTITLE16=rsion)
TTITLE17=Today - Him Or Me
TTITLE18=Keith Sweat - I Want Her (Extended Mix)
TTITLE19=Guy - You Can Call Me Crazy
TTITLE20=Bell Biv Devoe - B.B.D. (I Thought It Was Me) (Extended Versi
TTITLE20=on)
TTITLE21=Alexander O’Neal - If U Let It
TTITLE22=Heavy D. and The Boyz - Is It  Good To You
TTITLE23=Jeff Redd - You Called and Told Me (Radio Version)
TTITLE24=LL Cool J - Around The Way Girl
TTITLE25=Portrait - Honey Dip
TTITLE26=Jody Watley Feat. Eric B. and Rakim - Friends (Extended Version
TTITLE26=)
TTITLE27=Wreckx‐N‐Effect - New Jack Swing II (Hard Version)
TTITLE28=Bobby Brown - Every Little Step (Extended Version)
EXTD=
EXTT0=
EXTT1=
EXTT2=
EXTT3=
EXTT4=
EXTT5=
EXTT6=
EXTT7=
EXTT8=
EXTT9=
EXTT10=
EXTT11=
EXTT12=
EXTT13=
EXTT14=
EXTT15=
EXTT16=
EXTT17=
EXTT18=
EXTT19=
EXTT20=
EXTT21=
EXTT22=
EXTT23=
EXTT24=
EXTT25=
EXTT26=
EXTT27=
EXTT28=
PLAYORDER=
